<svg width="18" height="18" viewBox="0 0 18 18" fill="none" xmlns="http://www.w3.org/2000/svg">
<path d="M16.1415 11.3837L17.3332 10.192L16.1415 9.00033L13.1665 11.9753L6.02484 4.83366L8.99984 1.85866L7.80817 0.666992L6.6165 1.85866L5.42484 0.666992L3.6415 2.45033L2.44984 1.25866L1.25817 2.45033L2.44984 3.64199L0.666504 5.42533L1.85817 6.61699L0.666504 7.80866L1.85817 9.00033L4.83317 6.02533L11.9748 13.167L8.99984 16.142L10.1915 17.3337L11.3832 16.142L12.5748 17.3337L14.3582 15.5503L15.5498 16.742L16.7415 15.5503L15.5498 14.3587L17.3332 12.5753L16.1415 11.3837Z" fill="#323232"/>
</svg>
